<svg width="128" height="128" viewBox="0 0 33.867 33.867" xmlns="http://www.w3.org/2000/svg"><g paint-order="stroke fill markers"><path d="M27.057 20.99H.727l2.86-8.113h26.33l-2.86 8.112z" fill="#fc0"/><path d="M3.223 12.363L0 21.503h27.42l3.223-9.14zm1.35 1.908h23.374l-1.878 5.326H2.694z" fill="#003380"/><path d="M6.811 32.012h26.33l-2.86-8.112H3.95l2.86 8.112z" fill="#fc0"/><path d="M30.644 23.384l3.223 9.14H6.447l-3.224-9.14zm-1.35 1.908H5.92l1.878 5.326h23.376z" fill="#003380"/><path d="M6.811 9.969h26.33l-2.86-8.112H3.95l2.86 8.112z" fill="#fc0"/><path d="M30.644 1.342l3.223 9.14H6.447l-3.224-9.14zm-1.35 1.907H5.92l1.878 5.327h23.376z" fill="#003380"/></g></svg>